<mxfile host="app.diagrams.net" modified="2020-07-24T09:10:50.564Z" agent="5.0 (Windows NT 10.0; Win64; x64) AppleWebKit/537.36 (KHTML, like Gecko) Chrome/84.0.4147.89 Safari/537.36" etag="qsc6CxdhImI9e2-pJ7w7" version="13.4.4" type="github">
  <diagram id="nigU9w7pJr40Kmtbg8B6" name="Page-1">
    <mxGraphModel dx="2272" dy="745" grid="1" gridSize="10" guides="1" tooltips="1" connect="1" arrows="1" fold="1" page="1" pageScale="1" pageWidth="850" pageHeight="1100" math="0" shadow="0">
      <root>
        <mxCell id="0" />
        <mxCell id="1" parent="0" />
        <mxCell id="RIHxCk8ItQlatXdf-wxh-12" value="Text&lt;br&gt;Data" style="rounded=0;whiteSpace=wrap;html=1;fillColor=#f5f5f5;strokeColor=#666666;fontColor=#333333;" vertex="1" parent="1">
          <mxGeometry x="-140" y="470" width="80" height="230" as="geometry" />
        </mxCell>
        <mxCell id="RIHxCk8ItQlatXdf-wxh-13" value="Labelled Data" style="rounded=0;whiteSpace=wrap;html=1;fillColor=#f5f5f5;strokeColor=#666666;fontColor=#333333;" vertex="1" parent="1">
          <mxGeometry x="24" y="470" width="80" height="230" as="geometry" />
        </mxCell>
        <mxCell id="RIHxCk8ItQlatXdf-wxh-17" value="Data &lt;br&gt;Training" style="rounded=0;whiteSpace=wrap;html=1;fillColor=#f8cecc;strokeColor=#b85450;" vertex="1" parent="1">
          <mxGeometry x="370" y="470" width="80" height="150" as="geometry" />
        </mxCell>
        <mxCell id="RIHxCk8ItQlatXdf-wxh-18" value="Data &lt;br&gt;Testing" style="rounded=0;whiteSpace=wrap;html=1;fillColor=#fff2cc;strokeColor=#d6b656;" vertex="1" parent="1">
          <mxGeometry x="370" y="630" width="80" height="70" as="geometry" />
        </mxCell>
        <mxCell id="RIHxCk8ItQlatXdf-wxh-21" value="" style="shape=flexArrow;endArrow=classic;html=1;" edge="1" parent="1">
          <mxGeometry width="50" height="50" relative="1" as="geometry">
            <mxPoint x="-46" y="560" as="sourcePoint" />
            <mxPoint x="14" y="560" as="targetPoint" />
          </mxGeometry>
        </mxCell>
        <mxCell id="RIHxCk8ItQlatXdf-wxh-22" value="" style="shape=flexArrow;endArrow=classic;html=1;" edge="1" parent="1">
          <mxGeometry width="50" height="50" relative="1" as="geometry">
            <mxPoint x="290" y="570" as="sourcePoint" />
            <mxPoint x="360" y="570" as="targetPoint" />
          </mxGeometry>
        </mxCell>
        <mxCell id="RIHxCk8ItQlatXdf-wxh-24" value="ML Algorithm" style="rounded=0;whiteSpace=wrap;html=1;fillColor=#dae8fc;strokeColor=#6c8ebf;" vertex="1" parent="1">
          <mxGeometry x="530" y="470" width="80" height="160" as="geometry" />
        </mxCell>
        <mxCell id="RIHxCk8ItQlatXdf-wxh-26" value="" style="shape=flexArrow;endArrow=classic;html=1;" edge="1" parent="1">
          <mxGeometry width="50" height="50" relative="1" as="geometry">
            <mxPoint x="460" y="550" as="sourcePoint" />
            <mxPoint x="520" y="550" as="targetPoint" />
          </mxGeometry>
        </mxCell>
        <mxCell id="RIHxCk8ItQlatXdf-wxh-29" value="Evaluation" style="rounded=0;whiteSpace=wrap;html=1;fillColor=#d5e8d4;strokeColor=#82b366;" vertex="1" parent="1">
          <mxGeometry x="690" y="470" width="80" height="230" as="geometry" />
        </mxCell>
        <mxCell id="RIHxCk8ItQlatXdf-wxh-30" value="" style="shape=flexArrow;endArrow=classic;html=1;" edge="1" parent="1">
          <mxGeometry width="50" height="50" relative="1" as="geometry">
            <mxPoint x="460" y="670" as="sourcePoint" />
            <mxPoint x="680" y="670" as="targetPoint" />
          </mxGeometry>
        </mxCell>
        <mxCell id="RIHxCk8ItQlatXdf-wxh-32" value="" style="shape=flexArrow;endArrow=classic;html=1;" edge="1" parent="1">
          <mxGeometry width="50" height="50" relative="1" as="geometry">
            <mxPoint x="620" y="560" as="sourcePoint" />
            <mxPoint x="680" y="560" as="targetPoint" />
          </mxGeometry>
        </mxCell>
        <mxCell id="RIHxCk8ItQlatXdf-wxh-33" value="Data Labelling" style="text;html=1;strokeColor=none;fillColor=none;align=center;verticalAlign=middle;whiteSpace=wrap;rounded=0;" vertex="1" parent="1">
          <mxGeometry x="-30" y="500" width="40" height="20" as="geometry" />
        </mxCell>
        <mxCell id="RIHxCk8ItQlatXdf-wxh-34" value="Split Data" style="text;html=1;strokeColor=none;fillColor=none;align=center;verticalAlign=middle;whiteSpace=wrap;rounded=0;" vertex="1" parent="1">
          <mxGeometry x="290" y="500" width="70" height="20" as="geometry" />
        </mxCell>
        <mxCell id="RIHxCk8ItQlatXdf-wxh-35" value="Modelling" style="text;html=1;strokeColor=none;fillColor=none;align=center;verticalAlign=middle;whiteSpace=wrap;rounded=0;" vertex="1" parent="1">
          <mxGeometry x="460" y="500" width="70" height="20" as="geometry" />
        </mxCell>
        <mxCell id="RIHxCk8ItQlatXdf-wxh-36" value="Prediction" style="text;html=1;strokeColor=none;fillColor=none;align=center;verticalAlign=middle;whiteSpace=wrap;rounded=0;" vertex="1" parent="1">
          <mxGeometry x="620" y="500" width="70" height="20" as="geometry" />
        </mxCell>
        <mxCell id="RIHxCk8ItQlatXdf-wxh-39" value="" style="shape=flexArrow;endArrow=classic;html=1;" edge="1" parent="1">
          <mxGeometry width="50" height="50" relative="1" as="geometry">
            <mxPoint x="120" y="570" as="sourcePoint" />
            <mxPoint x="190" y="570" as="targetPoint" />
          </mxGeometry>
        </mxCell>
        <mxCell id="RIHxCk8ItQlatXdf-wxh-41" value="Processed Data" style="rounded=0;whiteSpace=wrap;html=1;fillColor=#f5f5f5;strokeColor=#666666;fontColor=#333333;" vertex="1" parent="1">
          <mxGeometry x="200" y="470" width="80" height="230" as="geometry" />
        </mxCell>
        <mxCell id="RIHxCk8ItQlatXdf-wxh-42" value="Data Preprocessing" style="text;html=1;strokeColor=none;fillColor=none;align=center;verticalAlign=middle;whiteSpace=wrap;rounded=0;" vertex="1" parent="1">
          <mxGeometry x="134" y="500" width="40" height="20" as="geometry" />
        </mxCell>
      </root>
    </mxGraphModel>
  </diagram>
</mxfile>
